<svg width="94" height="120" viewBox="0 0 94 120" fill="none" xmlns="http://www.w3.org/2000/svg">
<path fill-rule="evenodd" clip-rule="evenodd" d="M46.6027 119.494C49.0727 119.494 93.2056 72.3407 93.2056 46.6027C93.2056 20.8647 72.3406 0 46.6027 0C20.8647 0 0 20.8647 0 46.6027C0 72.3407 44.1329 119.494 46.6027 119.494ZM46.6028 69.9119C59.652 69.9119 70.2306 59.3332 70.2306 46.2841C70.2306 33.2349 59.652 22.6564 46.6028 22.6564C33.5537 22.6564 22.9752 33.2349 22.9752 46.2841C22.9752 59.3332 33.5537 69.9119 46.6028 69.9119Z" fill="#E32966"/>
<path d="M23.22 77.92L22.88 75H21.4L22.9 89H25.26L26.76 75H25.28L24.94 77.9L24.08 87.26L23.22 77.92ZM27.9123 89H29.4323V84.82L32.1523 89H33.9123L31.0123 84.56C32.7323 83.74 33.9323 82.04 33.9323 80.04C33.9323 77.26 31.6323 75 28.8323 75H27.9123V89ZM32.4123 80.04C32.4123 81.82 31.1323 83.34 29.4323 83.64V76.48C31.1323 76.78 32.4123 78.26 32.4123 80.04ZM42.5984 87.84C40.6384 87.84 38.9784 87.12 37.9184 85.96L48.6984 78.52C47.4384 76.26 45.0184 74.72 42.2384 74.72C38.1784 74.72 34.8784 77.98 34.8784 82C34.8784 86.02 37.9984 89.28 42.5984 89.28C45.0784 89.28 47.1584 88.26 48.5984 86.18L47.3984 85.3C46.2384 87.06 44.5784 87.84 42.5984 87.84ZM36.3984 82C36.3984 78.78 38.9784 76.16 42.2384 76.16C43.9984 76.16 45.5784 76.94 46.6384 78.16L37.0784 84.74C36.6384 83.92 36.3984 83 36.3984 82ZM50.9678 75L49.3678 89H50.8478L51.0078 87.52H53.2478L53.4278 89H54.9078L53.3078 75H50.9678ZM53.0878 86.08H51.1878L52.1278 76.68L53.0878 86.08ZM56.0373 89H60.6373V87.56H57.5573V75H56.0373V89ZM59.1173 86.12H60.6373V75H59.1173V86.12ZM61.7506 76.44H63.9906V89H65.5106V76.44H67.7506V75H61.7506V76.44ZM70.1294 89H71.6494V86.84L73.4094 75H71.9294L71.6294 76.8L70.8694 83.7L70.0494 76.8L69.7294 75H68.2494L70.1294 86.84V89Z" fill="white"/>
</svg>
